<svg width="20" height="20" viewBox="0 0 20 20" fill="none" xmlns="http://www.w3.org/2000/svg">
<path fill-rule="evenodd" clip-rule="evenodd" d="M4 10C4 9.934 4.054 9.642 4.313 9.175C4.61165 8.64905 4.9894 8.17214 5.433 7.761C6.443 6.816 7.956 6 10 6C12.045 6 13.558 6.816 14.566 7.76C15.074 8.237 15.446 8.74 15.687 9.175C15.945 9.642 16 9.935 16 10C16 10.066 15.945 10.358 15.687 10.825C15.447 11.26 15.074 11.763 14.567 12.239C13.557 13.184 12.044 14 10 14C7.955 14 6.442 13.184 5.434 12.24C4.98996 11.8286 4.61187 11.3514 4.313 10.825C4.055 10.358 4 10.065 4 10ZM3 10C3 8.75 5.333 5 10 5C14.667 5 17 8.75 17 10C17 11.25 14.667 15 10 15C5.333 15 3 11.25 3 10ZM11 10C11 10.2652 10.8946 10.5196 10.7071 10.7071C10.5196 10.8946 10.2652 11 10 11C9.73478 11 9.48043 10.8946 9.29289 10.7071C9.10536 10.5196 9 10.2652 9 10C9 9.73478 9.10536 9.48043 9.29289 9.29289C9.48043 9.10536 9.73478 9 10 9C10.2652 9 10.5196 9.10536 10.7071 9.29289C10.8946 9.48043 11 9.73478 11 10ZM12 10C12 10.5304 11.7893 11.0391 11.4142 11.4142C11.0391 11.7893 10.5304 12 10 12C9.46957 12 8.96086 11.7893 8.58579 11.4142C8.21071 11.0391 8 10.5304 8 10C8 9.46957 8.21071 8.96086 8.58579 8.58579C8.96086 8.21071 9.46957 8 10 8C10.5304 8 11.0391 8.21071 11.4142 8.58579C11.7893 8.96086 12 9.46957 12 10Z" fill="#1B1F24"/>
</svg>
