<svg width="20" height="20" viewBox="0 0 20 20" fill="none" xmlns="http://www.w3.org/2000/svg">
<path fill-rule="evenodd" clip-rule="evenodd" d="M3.43301 7C3.70901 7 3.96601 7.223 4.07401 7.477C4.11801 7.579 4.17401 7.695 4.24601 7.825C4.48601 8.26 4.85901 8.763 5.36701 9.239C6.37501 10.184 7.88701 11 9.93301 11C11.978 11 13.491 10.184 14.499 9.24C15.007 8.763 15.379 8.26 15.62 7.825C15.692 7.695 15.748 7.579 15.791 7.477C15.901 7.223 16.157 7 16.433 7C16.709 7 16.928 7.225 16.85 7.49C16.648 8.172 16.08 9.14 15.145 10.004L16.287 11.146C16.3809 11.2399 16.4336 11.3672 16.4336 11.5C16.4336 11.6328 16.3809 11.7601 16.287 11.854C16.1931 11.9479 16.0658 12.0006 15.933 12.0006C15.8002 12.0006 15.6729 11.9479 15.579 11.854L14.362 10.636C13.7811 11.0441 13.1446 11.3667 12.472 11.594L12.918 13.379C12.9467 13.5064 12.9244 13.64 12.8558 13.7512C12.7873 13.8623 12.678 13.9423 12.5512 13.9739C12.4245 14.0055 12.2905 13.9863 12.1777 13.9203C12.065 13.8544 11.9825 13.747 11.948 13.621L11.505 11.851C10.9871 11.9514 10.4606 12.0013 9.93301 12C9.40539 12.001 8.87892 11.9508 8.36101 11.85L7.918 13.621C7.88347 13.747 7.80101 13.8544 7.68828 13.9203C7.57555 13.9863 7.44149 14.0055 7.31478 13.9739C7.18806 13.9423 7.07874 13.8623 7.01019 13.7512C6.94165 13.64 6.91933 13.5064 6.94801 13.379L7.39401 11.594C6.72142 11.3667 6.08494 11.0441 5.50401 10.636L4.28701 11.854C4.24052 11.9005 4.18533 11.9374 4.12459 11.9625C4.06385 11.9877 3.99875 12.0006 3.93301 12.0006C3.86726 12.0006 3.80216 11.9877 3.74142 11.9625C3.68068 11.9374 3.62549 11.9005 3.57901 11.854C3.53252 11.8075 3.49564 11.7523 3.47048 11.6916C3.44532 11.6308 3.43237 11.5657 3.43237 11.5C3.43237 11.4343 3.44532 11.3692 3.47048 11.3084C3.49564 11.2477 3.53252 11.1925 3.57901 11.146L4.72101 10.004C3.78601 9.14 3.21801 8.172 3.01601 7.49C2.93801 7.225 3.15601 7 3.43301 7Z" fill="#1B1F24"/>
</svg>
